<svg width="16" height="16" viewBox="0 0 16 16" fill="none" xmlns="http://www.w3.org/2000/svg">
<path fill-rule="evenodd" clip-rule="evenodd" d="M4.53615 6.10352e-05H11.472C14.184 6.10352e-05 15.9999 1.90402 15.9999 4.73597V11.2726C15.9999 14.0958 14.184 15.9997 11.472 15.9997H4.53615C1.82421 15.9997 0.000244141 14.0958 0.000244141 11.2726V4.73597C0.000244141 1.90402 1.82421 6.10352e-05 4.53615 6.10352e-05ZM7.54388 10.3918L11.3438 6.59191C11.6158 6.31991 11.6158 5.87992 11.3438 5.59993C11.0718 5.32793 10.6238 5.32793 10.3518 5.59993L7.04789 8.90386L5.64792 7.50389C5.37593 7.23189 4.92793 7.23189 4.65594 7.50389C4.38394 7.77588 4.38394 8.21587 4.65594 8.49587L6.5599 10.3918C6.6959 10.5278 6.87189 10.5918 7.04789 10.5918C7.23189 10.5918 7.40788 10.5278 7.54388 10.3918Z" fill="#36E0A2"/>
</svg>
