<svg width="138" height="39" viewBox="0 0 138 39" fill="none" xmlns="http://www.w3.org/2000/svg">
<g clip-path="url(#clip0_1_960)">
<path d="M19.837 30.0804C19.837 32.4788 20.853 33.678 22.8851 33.678C22.9517 33.678 23.0016 33.678 23.035 33.678C23.9677 33.678 24.8005 33.1783 25.5333 32.179C26.2662 31.1796 26.8158 29.9305 27.1822 28.4314C27.9817 25.3668 28.3815 22.5853 28.3815 20.0869H27.9318C26.5327 20.0869 25.45 19.7704 24.6839 19.1375C23.8844 18.4046 23.4847 17.5219 23.4847 16.4892C23.4847 15.4566 23.8011 14.6238 24.434 13.9909C25.2002 13.2913 26.1496 12.9415 27.2822 12.9415C29.7472 12.9415 31.4128 14.2074 32.2789 16.7391C34.6107 16.1728 37.0758 15.3899 39.6741 14.3906V17.2387C37.209 18.1715 34.9105 18.8877 32.7786 19.3873C32.8119 19.6538 32.8286 20.0369 32.8286 20.5366C32.6953 27.4321 31.0797 32.4288 27.9817 35.5268C26.1496 37.3589 23.7678 38.275 20.8364 38.275C17.9383 38.275 15.773 37.0425 14.3406 34.5774C12.7084 37.0758 10.21 38.325 6.84553 38.325C4.84683 38.325 3.19791 37.6254 1.89876 36.2263C0.63292 34.7939 0 33.1117 0 31.1796C0 30.8465 0.0166558 30.4468 0.0499673 29.9804C0.74951 24.1842 1.33246 19.0542 1.79883 14.5905C2.99804 14.1907 4.04736 13.9909 4.94677 13.9909C7.31189 13.9909 8.49445 14.807 8.49445 16.4393C8.49445 17.0722 8.24462 19.2541 7.74494 22.985C7.11202 27.6819 6.79556 30.3302 6.79556 30.9298C6.79556 31.4961 7.01209 32.0624 7.44514 32.6287C7.9115 33.195 8.56108 33.4781 9.39387 33.4781C10.26 33.4781 11.0261 33.0951 11.6924 32.3289C12.3586 31.5627 12.8416 30.63 13.1414 29.5307L14.8903 14.5905C15.9562 14.1907 17.0888 13.9909 18.2881 13.9909C20.4533 13.9909 21.5359 14.807 21.5359 16.4393C21.5359 17.0389 21.3028 18.9876 20.8364 22.2854C20.1702 26.9491 19.837 29.5474 19.837 30.0804ZM26.3328 16.4892C26.3328 17.0555 26.8158 17.3387 27.7819 17.3387C27.8818 17.3387 27.9817 17.3387 28.0817 17.3387C27.8485 16.4393 27.4987 15.9896 27.0323 15.9896C26.566 15.9896 26.3328 16.1561 26.3328 16.4892Z" fill="white"/>
<path d="M49.2054 32.3289L50.4046 21.2861C50.4046 20.3867 50.1714 19.6372 49.705 19.0376C49.2387 18.438 48.4892 18.1382 47.4565 18.1382C46.4238 18.1382 45.5411 18.5545 44.8082 19.3873C44.1087 20.1868 43.5924 21.2528 43.2592 22.5853C43.0261 24.484 42.6763 27.2655 42.2099 30.9298C41.7436 34.5608 41.4438 36.9259 41.3105 38.0252H34.6649C37.0633 17.6052 38.5123 5.06336 39.012 0.39974C39.7116 0.133247 40.6609 0 41.8602 0C44.4585 0 45.7576 0.766166 45.7576 2.2985V2.5983C45.1913 7.82822 44.5917 12.4252 43.9588 16.3893C45.7243 14.7903 47.723 13.9909 49.9549 13.9909C52.1867 13.9909 53.9523 14.5572 55.2514 15.6898C56.5506 16.8223 57.2001 18.2547 57.2001 19.9869C57.2001 20.4533 57.1002 21.3194 56.9003 22.5853C56.1342 27.582 55.7511 30.5134 55.7511 31.3795C55.7511 32.9452 56.2674 33.728 57.3001 33.728C58.1662 33.728 59.0822 33.1617 60.0483 32.0291C61.0476 30.8632 61.8471 29.081 62.4467 26.6826C63.5793 27.8818 64.2622 28.8312 64.4954 29.5307C62.7632 35.3269 59.6985 38.225 55.3014 38.225C53.2361 38.225 51.7037 37.5921 50.7044 36.3263C49.705 35.0604 49.2054 33.728 49.2054 32.3289Z" fill="white"/>
<path d="M69.6955 26.8325C71.7608 26.3994 73.2932 25.5666 74.2925 24.3341C75.3252 23.1016 75.8415 21.919 75.8415 20.7864C75.8415 19.6205 75.525 18.8377 74.8921 18.438C74.2925 18.0049 73.6263 17.7884 72.8934 17.7884C71.3278 17.7884 69.9453 18.6711 68.7461 20.4367C67.5802 22.1689 66.9973 24.2508 66.9973 26.6826C66.9973 29.081 67.5636 30.8798 68.6961 32.0791C69.8621 33.245 71.2944 33.8279 72.9933 33.8279C75.4917 33.8279 77.8901 32.9618 80.1886 31.2296C82.4871 29.4974 84.3526 27.2322 85.785 24.434C86.5178 25.1336 87.1841 25.9997 87.7837 27.0323C86.6844 29.5307 84.7357 31.9791 81.9375 34.3775C80.5384 35.5435 78.8728 36.4928 76.9408 37.2257C75.042 37.9585 73.0766 38.325 71.0446 38.325C67.7135 38.325 65.0818 37.309 63.1498 35.277C61.0844 33.0784 60.0518 30.2636 60.0518 26.8325C60.0518 23.4014 61.3343 20.4033 63.8993 17.8384C66.4976 15.2734 69.5956 13.9909 73.1932 13.9909C75.7582 13.9909 77.8402 14.5572 79.4391 15.6898C81.0381 16.789 81.8542 18.2881 81.8875 20.1868C81.8875 22.7518 80.8549 24.8338 78.7896 26.4327C76.7576 28.0317 73.9594 29.1476 70.395 29.7806L69.6955 26.8325Z" fill="white"/>
<path d="M92.9713 26.8325C95.0366 26.3994 96.569 25.5666 97.5683 24.3341C98.601 23.1016 99.1173 21.919 99.1173 20.7864C99.1173 19.6205 98.8008 18.8377 98.1679 18.438C97.5683 18.0049 96.9021 17.7884 96.1692 17.7884C94.6036 17.7884 93.2212 18.6711 92.0219 20.4367C90.856 22.1689 90.2731 24.2508 90.2731 26.6826C90.2731 29.081 90.8394 30.8798 91.972 32.0791C93.1379 33.245 94.5703 33.8279 96.2692 33.8279C98.7675 33.8279 101.166 32.9618 103.464 31.2296C105.763 29.4974 107.628 27.2322 109.061 24.434C109.794 25.1336 110.46 25.9997 111.06 27.0323C109.96 29.5307 108.011 31.9791 105.213 34.3775C103.814 35.5435 102.149 36.4928 100.217 37.2257C98.3178 37.9585 96.3524 38.325 94.3204 38.325C90.9893 38.325 88.3577 37.309 86.4256 35.277C84.3603 33.0784 83.3276 30.2636 83.3276 26.8325C83.3276 23.4014 84.6101 20.4033 87.1751 17.8384C89.7734 15.2734 92.8714 13.9909 96.469 13.9909C99.034 13.9909 101.116 14.5572 102.715 15.6898C104.314 16.789 105.13 18.2881 105.163 20.1868C105.163 22.7518 104.131 24.8338 102.065 26.4327C100.033 28.0317 97.2352 29.1476 93.6709 29.7806L92.9713 26.8325Z" fill="white"/>
<path d="M113.649 38.3749C111.617 38.3749 110.018 37.8086 108.852 36.676C107.686 35.5101 107.103 33.9278 107.103 31.9291C107.103 31.3962 108.003 23.4847 109.801 8.19465C110.268 4.26388 111.517 1.78217 113.549 0.74951C114.482 0.249837 115.598 0 116.897 0C121.294 0 123.492 2.03201 123.492 6.09602C123.492 6.42913 123.476 6.77891 123.442 7.14533C123.109 11.6091 120.311 16.1561 115.048 20.7864C114.881 22.4187 114.698 24.001 114.498 25.5333C114.099 28.9644 113.899 30.8632 113.899 31.2296C113.899 32.9618 114.648 33.8279 116.147 33.8279C117.779 33.8279 119.295 32.8952 120.694 31.0297C122.127 29.131 123.226 26.7159 123.992 23.7845C124.292 23.8844 124.708 24.1676 125.241 24.6339C125.774 25.067 126.141 25.45 126.341 25.7832C125.808 28.548 124.608 31.1963 122.743 33.728C121.81 35.0271 120.628 36.0931 119.195 36.9259C117.563 37.8919 115.714 38.3749 113.649 38.3749ZM115.598 15.7897C118.662 12.4252 120.195 9.41052 120.195 6.74559C120.195 5.14664 119.595 4.34716 118.396 4.34716C117.63 4.41378 117.113 4.91346 116.847 5.84618C116.614 6.7789 116.38 8.29458 116.147 10.3932C115.947 12.4918 115.814 13.791 115.747 14.2907L115.598 15.7897Z" fill="white"/>
<path d="M126.024 1.24918C126.79 0.449705 127.723 0.0499667 128.822 0.0499667C129.921 0.0499667 130.854 0.449705 131.62 1.24918C132.42 2.01535 132.82 2.94807 132.82 4.04736C132.82 5.14664 132.42 6.07936 131.62 6.84553C130.854 7.6117 129.921 7.99478 128.822 7.99478C127.723 7.99478 126.79 7.6117 126.024 6.84553C125.258 6.07936 124.875 5.14664 124.875 4.04736C124.875 2.94807 125.258 2.01535 126.024 1.24918ZM123.975 15.8896C124.308 15.29 124.941 14.8403 125.874 14.5405C126.807 14.2074 127.723 14.0408 128.622 14.0408C129.555 14.0408 130.371 14.1574 131.071 14.3906C129.771 24.4174 129.122 29.4807 129.122 29.5807C128.955 30.2469 128.872 30.8132 128.872 31.2796C128.872 31.7126 128.905 32.0957 128.972 32.4288C129.105 33.2949 129.705 33.728 130.771 33.728C131.87 33.728 132.869 33.0284 133.769 31.6293C134.702 30.1969 135.401 28.5813 135.868 26.7825C136.101 26.9158 136.467 27.3155 136.967 27.9817C137.466 28.648 137.766 29.1476 137.866 29.4807C137.2 32.1457 136.067 34.2943 134.468 35.9265C132.869 37.5588 130.954 38.3749 128.722 38.3749C126.49 38.3749 124.825 37.8253 123.725 36.726C122.659 35.6267 122.126 34.211 122.126 32.4788C122.126 32.1124 122.143 31.7293 122.176 31.3295L123.975 15.8896Z" fill="white"/>
</g>
<defs>
<clipPath id="clip0_1_960">
<rect width="137.866" height="38.3749" fill="white"/>
</clipPath>
</defs>
</svg>
